<svg xmlns="http://www.w3.org/2000/svg" version="1.1" xmlns:xlink="http://www.w3.org/1999/xlink" xmlns:svgjs="http://svgjs.com/svgjs" width="1440" height="900" preserveAspectRatio="none" viewBox="0 0 1440 900"><g mask="url(&quot;#SvgjsMask1023&quot;)" fill="none"><path d="M450.57921223630797 131.8953776759024L258.0930037524504 162.19418114561705 362.96170623188885 296.4199993631199z" fill="rgba(232, 7, 7, 0.4)" class="triangle-float1"></path><path d="M631.4241180968045-48.38761643629274L639.5112490019816 105.92403377694117 785.7357683100383-56.47474734146984z" fill="rgba(232, 7, 7, 0.4)" class="triangle-float1"></path><path d="M1369.0865704037915 484.0570003630444L1479.9863958646793 275.4847636164638 1271.4141591180987 164.58493815557597 1160.514333657211 373.1571749021566z" fill="rgba(232, 7, 7, 0.4)" class="triangle-float2"></path><path d="M118.90259000626367 502.08507019448854L210.6426436459457 590.6774101945282 297.66112682616415 408.7711597349853z" fill="rgba(232, 7, 7, 0.4)" class="triangle-float3"></path><path d="M855.008,750.144C887.416,749.376,915.662,728.624,930.498,699.801C944.163,673.255,939.353,641.986,923.802,616.498C908.954,592.163,883.506,576.778,855.008,576.072C825.173,575.333,796.187,587.835,780.047,612.938C762.491,640.243,757.494,675.042,773.058,703.53C789.207,733.089,821.334,750.942,855.008,750.144" fill="rgba(232, 7, 7, 0.4)" class="triangle-float3"></path><path d="M435.4293585254114 779.8430549691753L529.6495289038374 914.4034034900268 664.2098774246888 820.1832331116008 569.9897070462628 685.6228845907493z" fill="rgba(232, 7, 7, 0.4)" class="triangle-float2"></path><path d="M594.367,137.534C643.258,141.028,690.62,110.537,711.578,66.228C730.343,26.556,709.43,-17.333,684.798,-53.655C663.784,-84.642,631.779,-105.155,594.367,-106.61C554.019,-108.179,511.097,-96.144,490.874,-61.196C470.625,-26.203,484.305,15.46,502.979,51.318C523.711,91.129,549.595,134.334,594.367,137.534" fill="rgba(232, 7, 7, 0.4)" class="triangle-float1"></path><path d="M609.7777487303164 750.8577192850962L830.4326118743471 657.1952868062782 736.7701793955291 436.54042366224746 516.1153162514984 530.2028561410655z" fill="rgba(232, 7, 7, 0.4)" class="triangle-float1"></path><path d="M1152.807927120022 262.2765901579845L1081.5860360943716 116.25007338355175 898.1572064455477 296.0961683092436z" fill="rgba(232, 7, 7, 0.4)" class="triangle-float2"></path><path d="M836.0497953983922 437.1222578152614L746.5596064949211 592.1238117750098 901.5611604546697 681.6140006784809 991.0513493581407 526.6124467187325z" fill="rgba(232, 7, 7, 0.4)" class="triangle-float1"></path><path d="M285.8434930789917 81.48310637342394L289.321972772921 280.7650745720001 488.6039409714972 277.2865948780708 485.12546127756787 78.0046266794946z" fill="rgba(232, 7, 7, 0.4)" class="triangle-float2"></path><path d="M89.727,402.78C121.822,403.453,149.541,381.647,164.796,353.401C179.291,326.561,177.214,294.766,162.491,268.05C147.182,240.27,121.443,217.593,89.727,217.18C57.4,216.759,28.613,237.476,13.604,266.111C-0.409,292.846,5.233,323.993,19.921,350.363C35.097,377.61,58.546,402.126,89.727,402.78" fill="rgba(232, 7, 7, 0.4)" class="triangle-float3"></path><path d="M299.7052633470751-139.24737337190436L184.6171041121458 86.62585700181754 410.4903344858677 201.71401623674683 525.578493720797-24.159214136975052z" fill="rgba(232, 7, 7, 0.4)" class="triangle-float1"></path><path d="M67.76786646805334 933.4561130095015L185.58848197175385 752.0282751802838 4.160644142536171 634.2076596765833-113.65997136116434 815.6354975058009z" fill="rgba(232, 7, 7, 0.4)" class="triangle-float2"></path><path d="M863.4955836364318 56.76852894742917L719.1739275235107 36.48544293168775 843.2124976206903 201.0901850603503z" fill="rgba(232, 7, 7, 0.4)" class="triangle-float1"></path><path d="M623.2148143308973 710.1464826965495L547.5850579727899 846.5861748861178 684.0247501623583 922.2159312442252 759.6545065204657 785.7762390546569z" fill="rgba(232, 7, 7, 0.4)" class="triangle-float2"></path><path d="M143.185,373.946C173.162,375.262,202.201,360.682,217.54,334.893C233.21,308.547,234.767,274.381,217.445,249.09C201.765,226.197,170.933,226.191,143.185,226.333C115.801,226.473,84.712,226.603,70.233,249.846C55.215,273.955,64.943,304.34,79.337,328.827C93.492,352.906,115.281,372.721,143.185,373.946" fill="rgba(232, 7, 7, 0.4)" class="triangle-float3"></path><path d="M177.6894616118995 560.5196564108787L316.60572917523746 738.3243706540677 355.49417585508843 421.6033888475408z" fill="rgba(232, 7, 7, 0.4)" class="triangle-float2"></path><path d="M296.8578752096268 298.0017253528652L127.97120216701396 252.748677698718 251.6048275554796 466.888398395478z" fill="rgba(232, 7, 7, 0.4)" class="triangle-float3"></path><path d="M1483.77,1041.603C1551.963,1037.613,1592.447,973.056,1625.526,913.29C1657.165,856.126,1686.742,789.701,1654.711,732.755C1622.259,675.061,1549.965,661.463,1483.77,661.275C1417.15,661.086,1347.146,675.727,1311.142,731.78C1272.532,791.891,1275.27,869.34,1310.043,931.749C1345.786,995.897,1410.461,1045.892,1483.77,1041.603" fill="rgba(232, 7, 7, 0.4)" class="triangle-float3"></path></g><defs><mask id="SvgjsMask1023"><rect width="1440" height="900" fill="#ffffff"></rect></mask><style>
            @keyframes float1 {
                0%{transform: translate(0, 0)}
                50%{transform: translate(-10px, 0)}
                100%{transform: translate(0, 0)}
            }

            .triangle-float1 {
                animation: float1 5s infinite;
            }

            @keyframes float2 {
                0%{transform: translate(0, 0)}
                50%{transform: translate(-5px, -5px)}
                100%{transform: translate(0, 0)}
            }

            .triangle-float2 {
                animation: float2 4s infinite;
            }

            @keyframes float3 {
                0%{transform: translate(0, 0)}
                50%{transform: translate(0, -10px)}
                100%{transform: translate(0, 0)}
            }

            .triangle-float3 {
                animation: float3 6s infinite;
            }
        </style></defs></svg>