<svg xmlns="http://www.w3.org/2000/svg" version="1.1" xmlns:xlink="http://www.w3.org/1999/xlink" xmlns:svgjs="http://svgjs.com/svgjs" width="1440" height="800" preserveAspectRatio="none" viewBox="0 0 1440 800"><g mask="url(&quot;#SvgjsMask1512&quot;)" fill="none"><g mask="url(&quot;#SvgjsMask1513&quot;)"><path d="M-25 425L25 425" stroke="rgba(188, 11, 53, 1)" stroke-width="8.33"></path><path d="M12.5 425 a12.5 12.5 0 1 0 25 0 a12.5 12.5 0 1 0 -25 0z" fill="rgba(188, 11, 53, 1)"></path><path d="M-25 375L25 375L75 375L125 375" stroke="#dd1133" stroke-width="8.33"></path><path d="M112.5 375 a12.5 12.5 0 1 0 25 0 a12.5 12.5 0 1 0 -25 0z" fill="#dd1133"></path><path d="M75 475L125 525L175 525L225 525M-25 475L25 475L75 475L125 475" stroke="rgba(188, 11, 53, 1)" stroke-width="8.33"></path><path d="M112.5 475 a12.5 12.5 0 1 0 25 0 a12.5 12.5 0 1 0 -25 0zM212.5 525 a12.5 12.5 0 1 0 25 0 a12.5 12.5 0 1 0 -25 0z" fill="rgba(188, 11, 53, 1)"></path><path d="M-25 325L25 325L75 325" stroke="#dd1133" stroke-width="8.33"></path><path d="M62.5 325 a12.5 12.5 0 1 0 25 0 a12.5 12.5 0 1 0 -25 0z" fill="#dd1133"></path><path d="M-25 525L25 525" stroke="rgba(188, 11, 53, 1)" stroke-width="8.33"></path><path d="M12.5 525 a12.5 12.5 0 1 0 25 0 a12.5 12.5 0 1 0 -25 0z" fill="rgba(188, 11, 53, 1)"></path><path d="M-25 275L25 275L75 275" stroke="rgba(188, 11, 53, 1)" stroke-width="8.33"></path><path d="M62.5 275 a12.5 12.5 0 1 0 25 0 a12.5 12.5 0 1 0 -25 0z" fill="rgba(188, 11, 53, 1)"></path><path d="M-25 575L25 575" stroke="#dd1133" stroke-width="8.33"></path><path d="M12.5 575 a12.5 12.5 0 1 0 25 0 a12.5 12.5 0 1 0 -25 0z" fill="#dd1133"></path><path d="M125 225L175 175L225 175M-25 225L25 225L75 225L125 225L175 225" stroke="rgba(188, 11, 53, 1)" stroke-width="8.33"></path><path d="M162.5 225 a12.5 12.5 0 1 0 25 0 a12.5 12.5 0 1 0 -25 0zM212.5 175 a12.5 12.5 0 1 0 25 0 a12.5 12.5 0 1 0 -25 0z" fill="rgba(188, 11, 53, 1)"></path></g></g><defs><mask id="SvgjsMask1512"><rect width="1440" height="800" fill="#ffffff"></rect></mask><mask id="SvgjsMask1513"><rect width="1440" height="800" fill="white"></rect><path d="M18.75 425 a6.25 6.25 0 1 0 12.5 0 a6.25 6.25 0 1 0 -12.5 0z" fill="black"></path><path d="M118.75 375 a6.25 6.25 0 1 0 12.5 0 a6.25 6.25 0 1 0 -12.5 0z" fill="black"></path><path d="M118.75 475 a6.25 6.25 0 1 0 12.5 0 a6.25 6.25 0 1 0 -12.5 0zM218.75 525 a6.25 6.25 0 1 0 12.5 0 a6.25 6.25 0 1 0 -12.5 0z" fill="black"></path><path d="M68.75 325 a6.25 6.25 0 1 0 12.5 0 a6.25 6.25 0 1 0 -12.5 0z" fill="black"></path><path d="M18.75 525 a6.25 6.25 0 1 0 12.5 0 a6.25 6.25 0 1 0 -12.5 0z" fill="black"></path><path d="M68.75 275 a6.25 6.25 0 1 0 12.5 0 a6.25 6.25 0 1 0 -12.5 0z" fill="black"></path><path d="M18.75 575 a6.25 6.25 0 1 0 12.5 0 a6.25 6.25 0 1 0 -12.5 0z" fill="black"></path><path d="M168.75 225 a6.25 6.25 0 1 0 12.5 0 a6.25 6.25 0 1 0 -12.5 0zM218.75 175 a6.25 6.25 0 1 0 12.5 0 a6.25 6.25 0 1 0 -12.5 0z" fill="black"></path></mask></defs></svg>