<svg xmlns="http://www.w3.org/2000/svg" version="1.1" xmlns:xlink="http://www.w3.org/1999/xlink" xmlns:svgjs="http://svgjs.com/svgjs" width="1440" height="560" preserveAspectRatio="none" viewBox="0 0 1440 560"><g mask="url(&quot;#SvgjsMask1184&quot;)" fill="none"><path d="M67.85 303.18L132.81 340.68L132.81 415.68L67.85 453.18L2.9 415.68L2.9 340.68zM67.85 528.18L132.81 565.68L132.81 640.68L67.85 678.18L2.9 640.68L2.9 565.68zM197.76 303.18L262.71 340.68L262.71 415.68L197.76 453.18L132.81 415.68L132.81 340.68zM327.67 78.18L392.62 115.68L392.62 190.68L327.67 228.18L262.71 190.68L262.71 115.68zM522.53 190.68L587.48 228.18L587.48 303.18L522.53 340.68L457.58 303.18L457.58 228.18zM717.39 303.18L782.35 340.68L782.35 415.68L717.39 453.18L652.44 415.68L652.44 340.68zM652.44 415.68L717.39 453.18L717.39 528.18L652.44 565.68L587.48 528.18L587.48 453.18zM782.34 190.68L847.3 228.18L847.3 303.18L782.34 340.68L717.39 303.18L717.39 228.18zM977.21 528.18L1042.16 565.68L1042.16 640.68L977.21 678.18L912.25 640.68L912.25 565.68zM1172.07 415.68L1237.02 453.18L1237.02 528.18L1172.07 565.68L1107.11 528.18L1107.11 453.18zM1237.02 528.18L1301.97 565.68L1301.97 640.68L1237.02 678.18L1172.07 640.68L1172.07 565.68zM1301.98 -34.32L1366.93 3.18L1366.93 78.18L1301.98 115.68L1237.02 78.18L1237.02 3.18zM1366.93 303.18L1431.88 340.68L1431.88 415.68L1366.93 453.18L1301.98 415.68L1301.98 340.68zM1431.88 190.68L1496.84 228.18L1496.84 303.18L1431.88 340.68L1366.93 303.18L1366.93 228.18zM1496.84 303.18L1561.79 340.68L1561.79 415.68L1496.84 453.18L1431.88 415.68L1431.88 340.68z" stroke="#03305d" stroke-width="2"></path><path d="M60.35 303.18 a7.5 7.5 0 1 0 15 0 a7.5 7.5 0 1 0 -15 0zM125.31 340.68 a7.5 7.5 0 1 0 15 0 a7.5 7.5 0 1 0 -15 0zM125.31 415.68 a7.5 7.5 0 1 0 15 0 a7.5 7.5 0 1 0 -15 0zM60.35 453.18 a7.5 7.5 0 1 0 15 0 a7.5 7.5 0 1 0 -15 0zM-4.6 415.68 a7.5 7.5 0 1 0 15 0 a7.5 7.5 0 1 0 -15 0zM-4.6 340.68 a7.5 7.5 0 1 0 15 0 a7.5 7.5 0 1 0 -15 0zM60.35 528.18 a7.5 7.5 0 1 0 15 0 a7.5 7.5 0 1 0 -15 0zM125.31 565.68 a7.5 7.5 0 1 0 15 0 a7.5 7.5 0 1 0 -15 0zM125.31 640.68 a7.5 7.5 0 1 0 15 0 a7.5 7.5 0 1 0 -15 0zM60.35 678.18 a7.5 7.5 0 1 0 15 0 a7.5 7.5 0 1 0 -15 0zM-4.6 640.68 a7.5 7.5 0 1 0 15 0 a7.5 7.5 0 1 0 -15 0zM-4.6 565.68 a7.5 7.5 0 1 0 15 0 a7.5 7.5 0 1 0 -15 0zM190.26 303.18 a7.5 7.5 0 1 0 15 0 a7.5 7.5 0 1 0 -15 0zM255.21 340.68 a7.5 7.5 0 1 0 15 0 a7.5 7.5 0 1 0 -15 0zM255.21 415.68 a7.5 7.5 0 1 0 15 0 a7.5 7.5 0 1 0 -15 0zM190.26 453.18 a7.5 7.5 0 1 0 15 0 a7.5 7.5 0 1 0 -15 0zM320.17 78.18 a7.5 7.5 0 1 0 15 0 a7.5 7.5 0 1 0 -15 0zM385.12 115.68 a7.5 7.5 0 1 0 15 0 a7.5 7.5 0 1 0 -15 0zM385.12 190.68 a7.5 7.5 0 1 0 15 0 a7.5 7.5 0 1 0 -15 0zM320.17 228.18 a7.5 7.5 0 1 0 15 0 a7.5 7.5 0 1 0 -15 0zM255.21 190.68 a7.5 7.5 0 1 0 15 0 a7.5 7.5 0 1 0 -15 0zM255.21 115.68 a7.5 7.5 0 1 0 15 0 a7.5 7.5 0 1 0 -15 0zM515.03 190.68 a7.5 7.5 0 1 0 15 0 a7.5 7.5 0 1 0 -15 0zM579.98 228.18 a7.5 7.5 0 1 0 15 0 a7.5 7.5 0 1 0 -15 0zM579.98 303.18 a7.5 7.5 0 1 0 15 0 a7.5 7.5 0 1 0 -15 0zM515.03 340.68 a7.5 7.5 0 1 0 15 0 a7.5 7.5 0 1 0 -15 0zM450.08 303.18 a7.5 7.5 0 1 0 15 0 a7.5 7.5 0 1 0 -15 0zM450.08 228.18 a7.5 7.5 0 1 0 15 0 a7.5 7.5 0 1 0 -15 0zM709.89 303.18 a7.5 7.5 0 1 0 15 0 a7.5 7.5 0 1 0 -15 0zM774.85 340.68 a7.5 7.5 0 1 0 15 0 a7.5 7.5 0 1 0 -15 0zM774.85 415.68 a7.5 7.5 0 1 0 15 0 a7.5 7.5 0 1 0 -15 0zM709.89 453.18 a7.5 7.5 0 1 0 15 0 a7.5 7.5 0 1 0 -15 0zM644.94 415.68 a7.5 7.5 0 1 0 15 0 a7.5 7.5 0 1 0 -15 0zM644.94 340.68 a7.5 7.5 0 1 0 15 0 a7.5 7.5 0 1 0 -15 0zM709.89 528.18 a7.5 7.5 0 1 0 15 0 a7.5 7.5 0 1 0 -15 0zM644.94 565.68 a7.5 7.5 0 1 0 15 0 a7.5 7.5 0 1 0 -15 0zM579.98 528.18 a7.5 7.5 0 1 0 15 0 a7.5 7.5 0 1 0 -15 0zM579.98 453.18 a7.5 7.5 0 1 0 15 0 a7.5 7.5 0 1 0 -15 0zM774.84 190.68 a7.5 7.5 0 1 0 15 0 a7.5 7.5 0 1 0 -15 0zM839.8 228.18 a7.5 7.5 0 1 0 15 0 a7.5 7.5 0 1 0 -15 0zM839.8 303.18 a7.5 7.5 0 1 0 15 0 a7.5 7.5 0 1 0 -15 0zM774.84 340.68 a7.5 7.5 0 1 0 15 0 a7.5 7.5 0 1 0 -15 0zM709.89 228.18 a7.5 7.5 0 1 0 15 0 a7.5 7.5 0 1 0 -15 0zM969.71 528.18 a7.5 7.5 0 1 0 15 0 a7.5 7.5 0 1 0 -15 0zM1034.66 565.68 a7.5 7.5 0 1 0 15 0 a7.5 7.5 0 1 0 -15 0zM1034.66 640.68 a7.5 7.5 0 1 0 15 0 a7.5 7.5 0 1 0 -15 0zM969.71 678.18 a7.5 7.5 0 1 0 15 0 a7.5 7.5 0 1 0 -15 0zM904.75 640.68 a7.5 7.5 0 1 0 15 0 a7.5 7.5 0 1 0 -15 0zM904.75 565.68 a7.5 7.5 0 1 0 15 0 a7.5 7.5 0 1 0 -15 0zM1164.57 415.68 a7.5 7.5 0 1 0 15 0 a7.5 7.5 0 1 0 -15 0zM1229.52 453.18 a7.5 7.5 0 1 0 15 0 a7.5 7.5 0 1 0 -15 0zM1229.52 528.18 a7.5 7.5 0 1 0 15 0 a7.5 7.5 0 1 0 -15 0zM1164.57 565.68 a7.5 7.5 0 1 0 15 0 a7.5 7.5 0 1 0 -15 0zM1099.61 528.18 a7.5 7.5 0 1 0 15 0 a7.5 7.5 0 1 0 -15 0zM1099.61 453.18 a7.5 7.5 0 1 0 15 0 a7.5 7.5 0 1 0 -15 0zM1294.47 565.68 a7.5 7.5 0 1 0 15 0 a7.5 7.5 0 1 0 -15 0zM1294.47 640.68 a7.5 7.5 0 1 0 15 0 a7.5 7.5 0 1 0 -15 0zM1229.52 678.18 a7.5 7.5 0 1 0 15 0 a7.5 7.5 0 1 0 -15 0zM1164.57 640.68 a7.5 7.5 0 1 0 15 0 a7.5 7.5 0 1 0 -15 0zM1294.48 -34.32 a7.5 7.5 0 1 0 15 0 a7.5 7.5 0 1 0 -15 0zM1359.43 3.18 a7.5 7.5 0 1 0 15 0 a7.5 7.5 0 1 0 -15 0zM1359.43 78.18 a7.5 7.5 0 1 0 15 0 a7.5 7.5 0 1 0 -15 0zM1294.48 115.68 a7.5 7.5 0 1 0 15 0 a7.5 7.5 0 1 0 -15 0zM1229.52 78.18 a7.5 7.5 0 1 0 15 0 a7.5 7.5 0 1 0 -15 0zM1229.52 3.18 a7.5 7.5 0 1 0 15 0 a7.5 7.5 0 1 0 -15 0zM1359.43 303.18 a7.5 7.5 0 1 0 15 0 a7.5 7.5 0 1 0 -15 0zM1424.38 340.68 a7.5 7.5 0 1 0 15 0 a7.5 7.5 0 1 0 -15 0zM1424.38 415.68 a7.5 7.5 0 1 0 15 0 a7.5 7.5 0 1 0 -15 0zM1359.43 453.18 a7.5 7.5 0 1 0 15 0 a7.5 7.5 0 1 0 -15 0zM1294.48 415.68 a7.5 7.5 0 1 0 15 0 a7.5 7.5 0 1 0 -15 0zM1294.48 340.68 a7.5 7.5 0 1 0 15 0 a7.5 7.5 0 1 0 -15 0zM1424.38 190.68 a7.5 7.5 0 1 0 15 0 a7.5 7.5 0 1 0 -15 0zM1489.34 228.18 a7.5 7.5 0 1 0 15 0 a7.5 7.5 0 1 0 -15 0zM1489.34 303.18 a7.5 7.5 0 1 0 15 0 a7.5 7.5 0 1 0 -15 0zM1359.43 228.18 a7.5 7.5 0 1 0 15 0 a7.5 7.5 0 1 0 -15 0zM1554.29 340.68 a7.5 7.5 0 1 0 15 0 a7.5 7.5 0 1 0 -15 0zM1554.29 415.68 a7.5 7.5 0 1 0 15 0 a7.5 7.5 0 1 0 -15 0zM1489.34 453.18 a7.5 7.5 0 1 0 15 0 a7.5 7.5 0 1 0 -15 0z" fill="#03305d"></path><path d="M35.59 281.19L78.89 306.19L78.89 356.19L35.59 381.19L-7.71 356.19L-7.71 306.19zM78.89 356.19L122.2 381.19L122.2 431.19L78.89 456.19L35.59 431.19L35.59 381.19zM165.5 56.19L208.8 81.19L208.8 131.19L165.5 156.19L122.2 131.19L122.2 81.19zM165.5 506.19L208.8 531.19L208.8 581.19L165.5 606.19L122.2 581.19L122.2 531.19zM295.4 431.19L338.71 456.19L338.71 506.19L295.4 531.19L252.1 506.19L252.1 456.19zM338.71 506.19L382.01 531.19L382.01 581.19L338.71 606.19L295.4 581.19L295.4 531.19zM425.31 356.19L468.62 381.19L468.62 431.19L425.31 456.19L382.01 431.19L382.01 381.19zM511.92 356.19L555.22 381.19L555.22 431.19L511.92 456.19L468.62 431.19L468.62 381.19zM555.22 131.19L598.52 156.19L598.52 206.19L555.22 231.19L511.92 206.19L511.92 156.19zM555.22 431.19L598.52 456.19L598.52 506.19L555.22 531.19L511.92 506.19L511.92 456.19zM641.83 131.19L685.13 156.19L685.13 206.19L641.83 231.19L598.52 206.19L598.52 156.19zM901.64 -18.81L944.94 6.19L944.94 56.19L901.64 81.19L858.34 56.19L858.34 6.19zM944.94 206.19L988.25 231.19L988.25 281.19L944.94 306.19L901.64 281.19L901.64 231.19zM1031.55 506.19L1074.85 531.19L1074.85 581.19L1031.55 606.19L988.25 581.19L988.25 531.19zM1074.85 -18.81L1118.15 6.19L1118.15 56.19L1074.85 81.19L1031.55 56.19L1031.55 6.19zM1118.15 56.19L1161.45 81.19L1161.45 131.19L1118.15 156.19L1074.85 131.19L1074.85 81.19zM1161.45 431.19L1204.76 456.19L1204.76 506.19L1161.45 531.19L1118.15 506.19L1118.15 456.19zM1291.36 56.19L1334.66 81.19L1334.66 131.19L1291.36 156.19L1248.06 131.19L1248.06 81.19zM1248.06 131.19L1291.36 156.19L1291.36 206.19L1248.06 231.19L1204.76 206.19L1204.76 156.19zM1248.06 281.19L1291.36 306.19L1291.36 356.19L1248.06 381.19L1204.76 356.19L1204.76 306.19zM1248.06 431.19L1291.36 456.19L1291.36 506.19L1248.06 531.19L1204.76 506.19L1204.76 456.19zM1291.36 506.19L1334.66 531.19L1334.66 581.19L1291.36 606.19L1248.06 581.19L1248.06 531.19zM1334.66 -18.81L1377.97 6.19L1377.97 56.19L1334.66 81.19L1291.36 56.19L1291.36 6.19zM1377.97 56.19L1421.27 81.19L1421.27 131.19L1377.97 156.19L1334.66 131.19L1334.66 81.19zM1464.57 206.19L1507.88 231.19L1507.88 281.19L1464.57 306.19L1421.27 281.19L1421.27 231.19z" stroke="rgba(6, 80, 156, 0.93)" stroke-width="2"></path></g><defs><mask id="SvgjsMask1184"><rect width="1440" height="560" fill="#ffffff"></rect></mask></defs></svg>