<svg xmlns="http://www.w3.org/2000/svg" version="1.1" xmlns:xlink="http://www.w3.org/1999/xlink" xmlns:svgjs="http://svgjs.com/svgjs" width="1440" height="1440" preserveAspectRatio="none" viewBox="0 0 1440 1440"><g mask="url(&quot;#SvgjsMask1004&quot;)" fill="none"><rect width="1440" height="1440" x="0" y="0" fill="#0e2a47"></rect><path d="M 0,236 C 57.6,287 172.8,481.8 288,491 C 403.2,500.2 460.8,290 576,282 C 691.2,274 748.8,507 864,451 C 979.2,395 1036.8,-29.6 1152,2 C 1267.2,33.6 1382.4,487.6 1440,609L1440 1440L0 1440z" fill="#184a7e"></path><path d="M 0,945 C 96,1023.6 288,1315.4 480,1338 C 672,1360.6 768,1050.6 960,1058 C 1152,1065.4 1344,1311.6 1440,1375L1440 1440L0 1440z" fill="#2264ab"></path></g><defs><mask id="SvgjsMask1004"><rect width="1440" height="1440" fill="#ffffff"></rect></mask></defs></svg>