<svg xmlns="http://www.w3.org/2000/svg" version="1.1" xmlns:xlink="http://www.w3.org/1999/xlink" xmlns:svgjs="http://svgjs.com/svgjs" width="1440" height="940" preserveAspectRatio="none" viewBox="0 0 1440 940"><g mask="url(&quot;#SvgjsMask1000&quot;)" fill="none"><rect width="1440" height="940" x="0" y="0" fill="rgba(237, 237, 237, 1)"></rect><g transform="translate(-14.4, 0)" stroke-linecap="round"><path d="M140 429.22 L140 510.78" stroke-width="15" stroke="rgba(141, 137, 138, 1)"></path><path d="M160 284.34 L160 655.66" stroke-width="15" stroke="rgba(43, 43, 43, 1)"></path><path d="M180 322.38 L180 617.63" stroke-width="15" stroke="rgba(43, 43, 43, 1)"></path><path d="M200 302.04 L200 637.96" stroke-width="15" stroke="rgba(43, 43, 43, 1)"></path><path d="M220 393.4 L220 546.6" stroke-width="15" stroke="rgba(141, 137, 138, 1)"></path><path d="M240 406.51 L240 533.49" stroke-width="15" stroke="rgba(43, 43, 43, 1)"></path><path d="M260 128.98 L260 811.02" stroke-width="15" stroke="rgba(43, 43, 43, 1)"></path><path d="M280 190.55 L280 749.45" stroke-width="15" stroke="rgba(43, 43, 43, 1)"></path><path d="M300 422.15 L300 517.85" stroke-width="15" stroke="rgba(43, 43, 43, 1)"></path><path d="M320 342.45 L320 597.54" stroke-width="15" stroke="rgba(141, 137, 138, 1)"></path><path d="M340 115.59 L340 824.41" stroke-width="15" stroke="rgba(43, 43, 43, 1)"></path><path d="M360 227.46 L360 712.54" stroke-width="15" stroke="rgba(141, 137, 138, 1)"></path><path d="M380 339.42 L380 600.58" stroke-width="15" stroke="rgba(43, 43, 43, 1)"></path><path d="M400 274.71 L400 665.29" stroke-width="15" stroke="rgba(141, 137, 138, 1)"></path><path d="M420 197.92 L420 742.09" stroke-width="15" stroke="rgba(43, 43, 43, 1)"></path><path d="M440 252.59 L440 687.41" stroke-width="15" stroke="rgba(43, 43, 43, 1)"></path><path d="M460 198.9 L460 741.1" stroke-width="15" stroke="rgba(141, 137, 138, 1)"></path><path d="M480 232.9 L480 707.1" stroke-width="15" stroke="rgba(43, 43, 43, 1)"></path><path d="M500 364.32 L500 575.67" stroke-width="15" stroke="rgba(141, 137, 138, 1)"></path><path d="M520 164.77 L520 775.23" stroke-width="15" stroke="rgba(141, 137, 138, 1)"></path><path d="M540 369.95 L540 570.04" stroke-width="15" stroke="rgba(141, 137, 138, 1)"></path><path d="M560 224.32 L560 715.67" stroke-width="15" stroke="rgba(43, 43, 43, 1)"></path><path d="M580 341.56 L580 598.43" stroke-width="15" stroke="rgba(141, 137, 138, 1)"></path><path d="M600 189.31 L600 750.69" stroke-width="15" stroke="rgba(43, 43, 43, 1)"></path><path d="M620 408.33 L620 531.66" stroke-width="15" stroke="rgba(141, 137, 138, 1)"></path><path d="M640 292.76 L640 647.24" stroke-width="15" stroke="rgba(43, 43, 43, 1)"></path><path d="M660 422.62 L660 517.38" stroke-width="15" stroke="rgba(43, 43, 43, 1)"></path><path d="M680 250.19 L680 689.81" stroke-width="15" stroke="rgba(141, 137, 138, 1)"></path><path d="M700 193.87 L700 746.13" stroke-width="15" stroke="rgba(43, 43, 43, 1)"></path><path d="M720 384.36 L720 555.64" stroke-width="15" stroke="rgba(43, 43, 43, 1)"></path><path d="M740 384.76 L740 555.24" stroke-width="15" stroke="rgba(43, 43, 43, 1)"></path><path d="M760 348.25 L760 591.75" stroke-width="15" stroke="rgba(43, 43, 43, 1)"></path><path d="M780 423.47 L780 516.53" stroke-width="15" stroke="rgba(43, 43, 43, 1)"></path><path d="M800 430.29 L800 509.71" stroke-width="15" stroke="rgba(43, 43, 43, 1)"></path><path d="M820 400.03 L820 539.97" stroke-width="15" stroke="rgba(43, 43, 43, 1)"></path><path d="M840 167.81 L840 772.18" stroke-width="15" stroke="rgba(141, 137, 138, 1)"></path><path d="M860 299.24 L860 640.76" stroke-width="15" stroke="rgba(141, 137, 138, 1)"></path><path d="M880 277.27 L880 662.73" stroke-width="15" stroke="rgba(43, 43, 43, 1)"></path><path d="M900 406.45 L900 533.55" stroke-width="15" stroke="rgba(43, 43, 43, 1)"></path><path d="M920 124.12 L920 815.88" stroke-width="15" stroke="rgba(141, 137, 138, 1)"></path><path d="M940 161.27 L940 778.73" stroke-width="15" stroke="rgba(43, 43, 43, 1)"></path><path d="M960 301.19 L960 638.82" stroke-width="15" stroke="rgba(141, 137, 138, 1)"></path><path d="M980 340.6 L980 599.4" stroke-width="15" stroke="rgba(43, 43, 43, 1)"></path><path d="M1000 338.12 L1000 601.88" stroke-width="15" stroke="rgba(141, 137, 138, 1)"></path><path d="M1020 301.27 L1020 638.73" stroke-width="15" stroke="rgba(141, 137, 138, 1)"></path><path d="M1040 382.8 L1040 557.2" stroke-width="15" stroke="rgba(43, 43, 43, 1)"></path><path d="M1060 418.53 L1060 521.47" stroke-width="15" stroke="rgba(43, 43, 43, 1)"></path><path d="M1080 380.39 L1080 559.61" stroke-width="15" stroke="rgba(43, 43, 43, 1)"></path><path d="M1100 102 L1100 838" stroke-width="15" stroke="rgba(141, 137, 138, 1)"></path><path d="M1120 218.25 L1120 721.75" stroke-width="15" stroke="rgba(43, 43, 43, 1)"></path><path d="M1140 232.29 L1140 707.71" stroke-width="15" stroke="rgba(141, 137, 138, 1)"></path><path d="M1160 412.83 L1160 527.17" stroke-width="15" stroke="rgba(43, 43, 43, 1)"></path><path d="M1180 150.43 L1180 789.57" stroke-width="15" stroke="rgba(141, 137, 138, 1)"></path><path d="M1200 345.07 L1200 594.92" stroke-width="15" stroke="rgba(43, 43, 43, 1)"></path><path d="M1220 376.41 L1220 563.59" stroke-width="15" stroke="rgba(43, 43, 43, 1)"></path><path d="M1240 276.88 L1240 663.12" stroke-width="15" stroke="rgba(141, 137, 138, 1)"></path><path d="M1260 311.94 L1260 628.06" stroke-width="15" stroke="rgba(43, 43, 43, 1)"></path><path d="M1280 292.65 L1280 647.35" stroke-width="15" stroke="rgba(43, 43, 43, 1)"></path><path d="M1300 221.88 L1300 718.13" stroke-width="15" stroke="rgba(43, 43, 43, 1)"></path></g></g><defs><mask id="SvgjsMask1000"><rect width="1440" height="940" fill="#ffffff"></rect></mask></defs></svg>